<svg width="36" height="30" viewBox="0 0 36 30" fill="none" xmlns="http://www.w3.org/2000/svg">
<path d="M20.5 0C12.2167 0 5.5 6.71667 5.5 15H0.5L6.98333 21.4833L7.1 21.7167L13.8333 15H8.83333C8.83333 8.55 14.05 3.33333 20.5 3.33333C26.95 3.33333 32.1667 8.55 32.1667 15C32.1667 21.45 26.95 26.6667 20.5 26.6667C17.2833 26.6667 14.3667 25.35 12.2667 23.2333L9.9 25.6C12.6167 28.3167 16.35 30 20.5 30C28.7833 30 35.5 23.2833 35.5 15C35.5 6.71667 28.7833 0 20.5 0ZM18.8333 8.33333V16.6667L25.9167 20.8667L27.2 18.7333L21.3333 15.25V8.33333H18.8333Z" fill="#475467"/>
</svg>
