<svg width="14" height="14" viewBox="0 0 14 14" fill="none" xmlns="http://www.w3.org/2000/svg">
<path d="M7.00004 2C7.91671 2 8.66671 2.75 8.66671 3.66667C8.66671 4.58334 7.91671 5.33334 7.00004 5.33334C6.08337 5.33334 5.33337 4.58334 5.33337 3.66667C5.33337 2.75 6.08337 2 7.00004 2ZM7.00004 10.3333C9.25004 10.3333 11.8334 11.4083 12 12H2.00004C2.19171 11.4 4.75837 10.3333 7.00004 10.3333ZM7.00004 0.333336C5.15837 0.333336 3.66671 1.825 3.66671 3.66667C3.66671 5.50834 5.15837 7 7.00004 7C8.84171 7 10.3334 5.50834 10.3334 3.66667C10.3334 1.825 8.84171 0.333336 7.00004 0.333336ZM7.00004 8.66667C4.77504 8.66667 0.333374 9.78334 0.333374 12V13.6667H13.6667V12C13.6667 9.78334 9.22504 8.66667 7.00004 8.66667Z" fill="#475467"/>
</svg>
