<svg width="28" height="28" viewBox="0 0 28 28" fill="none" xmlns="http://www.w3.org/2000/svg">
<path d="M14 2.33334C7.55998 2.33334 2.33331 7.56001 2.33331 14C2.33331 20.44 7.55998 25.6667 14 25.6667C20.44 25.6667 25.6666 20.44 25.6666 14C25.6666 7.56001 20.44 2.33334 14 2.33334ZM14 23.3333C8.85498 23.3333 4.66665 19.145 4.66665 14C4.66665 8.85501 8.85498 4.66668 14 4.66668C19.145 4.66668 23.3333 8.85501 23.3333 14C23.3333 19.145 19.145 23.3333 14 23.3333ZM7.58331 20.4167L16.345 16.345L20.4166 7.58334L11.655 11.655L7.58331 20.4167ZM14 12.7167C14.7116 12.7167 15.2833 13.2883 15.2833 14C15.2833 14.7117 14.7116 15.2833 14 15.2833C13.2883 15.2833 12.7166 14.7117 12.7166 14C12.7166 13.2883 13.2883 12.7167 14 12.7167Z" fill="#101828"/>
</svg>
