<svg width="20" height="20" viewBox="0 0 20 20" fill="none" xmlns="http://www.w3.org/2000/svg">
<mask id="mask0_1_2451" style="mask-type:alpha" maskUnits="userSpaceOnUse" x="0" y="0" width="20" height="20">
<rect width="20" height="20" fill="#D9D9D9"/>
</mask>
<g mask="url(#mask0_1_2451)">
<path d="M1.66663 18.3333V3.33332C1.66663 2.87499 1.82982 2.48263 2.15621 2.15624C2.4826 1.82985 2.87496 1.66666 3.33329 1.66666H16.6666C17.125 1.66666 17.5173 1.82985 17.8437 2.15624C18.1701 2.48263 18.3333 2.87499 18.3333 3.33332V13.3333C18.3333 13.7917 18.1701 14.184 17.8437 14.5104C17.5173 14.8368 17.125 15 16.6666 15H4.99996L1.66663 18.3333ZM4.29163 13.3333H16.6666V3.33332H3.33329V14.2708L4.29163 13.3333Z" fill="#475467"/>
</g>
</svg>
