<svg width="14" height="18" viewBox="0 0 14 18" fill="none" xmlns="http://www.w3.org/2000/svg">
<path d="M0.333374 14.8333V13.1667H2.00004V7.33332C2.00004 6.18055 2.34726 5.15624 3.04171 4.26041C3.73615 3.36457 4.63893 2.77777 5.75004 2.49999V1.91666C5.75004 1.56943 5.87157 1.2743 6.11462 1.03124C6.35768 0.788184 6.65282 0.666656 7.00004 0.666656C7.34726 0.666656 7.6424 0.788184 7.88546 1.03124C8.12851 1.2743 8.25004 1.56943 8.25004 1.91666V2.49999C9.36115 2.77777 10.2639 3.36457 10.9584 4.26041C11.6528 5.15624 12 6.18055 12 7.33332V13.1667H13.6667V14.8333H0.333374ZM7.00004 17.3333C6.54171 17.3333 6.14935 17.1701 5.82296 16.8437C5.49657 16.5174 5.33337 16.125 5.33337 15.6667H8.66671C8.66671 16.125 8.50351 16.5174 8.17712 16.8437C7.85074 17.1701 7.45837 17.3333 7.00004 17.3333ZM3.66671 13.1667H10.3334V7.33332C10.3334 6.41666 10.007 5.63193 9.35421 4.97916C8.70143 4.32638 7.91671 3.99999 7.00004 3.99999C6.08337 3.99999 5.29865 4.32638 4.64587 4.97916C3.9931 5.63193 3.66671 6.41666 3.66671 7.33332V13.1667Z" fill="#475467"/>
</svg>
