<svg  stroke-width="2" width="21" height="22" viewBox="0 0 21 22" fill="none" xmlns="http://www.w3.org/2000/svg">
<path d="M19.2334 7H1.2334M14.2334 1V4M6.2334 1V4M6.0334 21H14.4334C16.1136 21 16.9536 21 17.5954 20.673C18.1599 20.3854 18.6188 19.9265 18.9064 19.362C19.2334 18.7202 19.2334 17.8802 19.2334 16.2V7.8C19.2334 6.11984 19.2334 5.27976 18.9064 4.63803C18.6188 4.07354 18.1599 3.6146 17.5954 3.32698C16.9536 3 16.1136 3 14.4334 3H6.0334C4.35324 3 3.51316 3 2.87143 3.32698C2.30694 3.6146 1.848 4.07354 1.56038 4.63803C1.2334 5.27976 1.2334 6.11984 1.2334 7.8V16.2C1.2334 17.8802 1.2334 18.7202 1.56038 19.362C1.848 19.9265 2.30694 20.3854 2.87143 20.673C3.51316 21 4.35324 21 6.0334 21ZM10.2307 11.3306C9.43092 10.4216 8.0973 10.1771 7.09528 11.0094C6.09326 11.8418 5.95219 13.2335 6.73908 14.2179C7.3104 14.9327 8.89267 16.3397 9.71673 17.0569C9.89538 17.2124 9.9847 17.2902 10.0894 17.321C10.18 17.3477 10.2813 17.3477 10.372 17.321C10.4766 17.2902 10.5659 17.2124 10.7446 17.0569C11.5687 16.3397 13.1509 14.9327 13.7222 14.2179C14.5091 13.2335 14.3853 11.8331 13.366 11.0094C12.3468 10.1858 11.0304 10.4216 10.2307 11.3306Z"  stroke-linecap="round" stroke-linejoin="round"/>
</svg>
