<svg width="19" height="19" viewBox="0 0 19 19" fill="none" xmlns="http://www.w3.org/2000/svg">
<path d="M17.3665 19L11.0165 12.65L12.4165 11.25L18.7665 17.6L17.3665 19ZM3.71648 18.3C2.71648 17.3 1.97481 16.175 1.49148 14.925C1.00815 13.675 0.766479 12.4 0.766479 11.1C0.766479 9.80001 1.00815 8.53334 1.49148 7.30001C1.97481 6.06667 2.71648 4.95001 3.71648 3.95001C4.71648 2.95001 5.83731 2.20417 7.07898 1.71251C8.32065 1.22084 9.59148 0.975006 10.8915 0.975006C12.1915 0.975006 13.4623 1.22084 14.704 1.71251C15.9456 2.20417 17.0665 2.95001 18.0665 3.95001L3.71648 18.3ZM3.91648 15.25L5.26648 13.9C4.99981 13.55 4.74565 13.1917 4.50398 12.825C4.26231 12.4583 4.04148 12.0917 3.84148 11.725C3.64148 11.3583 3.46648 10.9917 3.31648 10.625C3.16648 10.2583 3.03315 9.90001 2.91648 9.55001C2.73315 10.5333 2.72065 11.5167 2.87898 12.5C3.03731 13.4833 3.38315 14.4 3.91648 15.25ZM6.71648 12.5L12.2665 6.90001C11.5498 6.35001 10.829 5.90417 10.104 5.56251C9.37898 5.22084 8.69981 4.98751 8.06648 4.86251C7.43315 4.73751 6.86231 4.71667 6.35398 4.80001C5.84565 4.88334 5.44981 5.06667 5.16648 5.35001C4.88315 5.65001 4.69981 6.05417 4.61648 6.56251C4.53315 7.07084 4.55398 7.64584 4.67898 8.28751C4.80398 8.92917 5.03731 9.60834 5.37898 10.325C5.72065 11.0417 6.16648 11.7667 6.71648 12.5ZM13.6665 5.50001L15.0665 4.15001C14.1831 3.61667 13.2498 3.26667 12.2665 3.10001C11.2831 2.93334 10.2998 2.95001 9.31648 3.15001C9.68315 3.26667 10.0498 3.40001 10.4165 3.55001C10.7831 3.70001 11.1498 3.87084 11.5165 4.06251C11.8831 4.25417 12.2456 4.47084 12.604 4.71251C12.9623 4.95417 13.3165 5.21667 13.6665 5.50001Z" />
</svg>
